<svg xmlns="http://www.w3.org/2000/svg" viewBox="0 0 1600 1000" width="1600" height="1000" role="img" aria-label="FIAT DOBLO CARGO">
  <defs>
    <linearGradient id="bg-fiat-doblo" x1="0" y1="0" x2="0.4" y2="1">
      <stop offset="0%" stop-color="#101b27"/><stop offset="48%" stop-color="#0a121c"/><stop offset="100%" stop-color="#060b12"/>
    </linearGradient>
    <radialGradient id="glow-fiat-doblo" cx="50%" cy="46%" r="58%">
      <stop offset="0%" stop-color="#4d76a1" stop-opacity=".95"/>
      <stop offset="42%" stop-color="#25405c" stop-opacity=".55"/>
      <stop offset="100%" stop-color="#080e16" stop-opacity="0"/>
    </radialGradient>
    <linearGradient id="body-fiat-doblo" x1="0.1" y1="0" x2="0.7" y2="1">
      <stop offset="0%" stop-color="#dfe5ea"/>
      <stop offset="52%" stop-color="#dfe5ea"/>
      <stop offset="100%" stop-color="#8f9dab"/>
    </linearGradient>
    <linearGradient id="glass-fiat-doblo" x1="0" y1="0" x2="0.6" y2="1">
      <stop offset="0%" stop-color="#cfe2f2" stop-opacity=".92"/>
      <stop offset="45%" stop-color="#7f9cb8" stop-opacity=".82"/>
      <stop offset="100%" stop-color="#22323f" stop-opacity=".92"/>
    </linearGradient>
    <radialGradient id="shadow-fiat-doblo" cx="50%" cy="50%" r="50%">
      <stop offset="0%" stop-color="#000000" stop-opacity=".62"/>
      <stop offset="100%" stop-color="#000000" stop-opacity="0"/>
    </radialGradient>
    <linearGradient id="water-fiat-doblo" x1="0" y1="0" x2="0" y2="1">
      <stop offset="0%" stop-color="#12354f"/><stop offset="100%" stop-color="#071723"/>
    </linearGradient>
    <linearGradient id="tagline-fiat-doblo" x1="0" y1="0" x2="1" y2="0">
      <stop offset="0%" stop-color="#ff7a3d"/><stop offset="100%" stop-color="#ff7a3d" stop-opacity="0"/>
    </linearGradient>
    
    <radialGradient id="hub-fiat-doblo-0" cx="38%" cy="32%" r="80%">
      <stop offset="0%" stop-color="#6b7c8d"/><stop offset="55%" stop-color="#38475a"/><stop offset="100%" stop-color="#1a2430"/>
    </radialGradient>
    <linearGradient id="rim-fiat-doblo-0" x1="0" y1="0" x2="1" y2="1">
      <stop offset="0%" stop-color="#93a4b6"/><stop offset="100%" stop-color="#3c4c5f"/>
    </linearGradient>
    <radialGradient id="hub-fiat-doblo-1" cx="38%" cy="32%" r="80%">
      <stop offset="0%" stop-color="#6b7c8d"/><stop offset="55%" stop-color="#38475a"/><stop offset="100%" stop-color="#1a2430"/>
    </radialGradient>
    <linearGradient id="rim-fiat-doblo-1" x1="0" y1="0" x2="1" y2="1">
      <stop offset="0%" stop-color="#93a4b6"/><stop offset="100%" stop-color="#3c4c5f"/>
    </linearGradient>
  </defs>

  <rect width="1600" height="1000" fill="url(#bg-fiat-doblo)"/>
  <ellipse cx="800" cy="460" rx="820" ry="470" fill="url(#glow-fiat-doblo)"/>

  <g opacity=".16" stroke="#7fa8cf" stroke-width="1.4">
    <line x1="100" y1="0" x2="100" y2="1000"/><line x1="275" y1="0" x2="275" y2="1000"/><line x1="450" y1="0" x2="450" y2="1000"/><line x1="625" y1="0" x2="625" y2="1000"/><line x1="800" y1="0" x2="800" y2="1000"/><line x1="975" y1="0" x2="975" y2="1000"/><line x1="1150" y1="0" x2="1150" y2="1000"/><line x1="1325" y1="0" x2="1325" y2="1000"/><line x1="1500" y1="0" x2="1500" y2="1000"/>
    <line x1="0" y1="120" x2="1600" y2="120"/><line x1="0" y1="280" x2="1600" y2="280"/><line x1="0" y1="440" x2="1600" y2="440"/><line x1="0" y1="600" x2="1600" y2="600"/><line x1="0" y1="760" x2="1600" y2="760"/><line x1="0" y1="920" x2="1600" y2="920"/>
  </g>

  <circle cx="800" cy="470" r="330" fill="none" stroke="#ffffff" stroke-opacity=".07" stroke-width="2"/>
  <circle cx="800" cy="470" r="430" fill="none" stroke="#ffffff" stroke-opacity=".05" stroke-width="2"/>

  <ellipse cx="800" cy="794" rx="560" ry="34" fill="url(#shadow-fiat-doblo)"/>
  
  <g>
    <circle cx="1150" cy="668" r="100" fill="#0a0f16"/>
    <circle cx="1150" cy="668" r="100" fill="none" stroke="#1b2531" stroke-width="9.0"/>
    <circle cx="1150" cy="668" r="78.0" fill="#111922"/>
    <circle cx="1150" cy="668" r="60.0" fill="url(#hub-fiat-doblo-0)"/>
    <line x1="1166.8" y1="668.0" x2="1206.4" y2="668.0" stroke="url(#rim-fiat-doblo-0)" stroke-width="7.5" stroke-linecap="round"/><line x1="1163.6" y1="677.9" x2="1195.6" y2="701.2" stroke="url(#rim-fiat-doblo-0)" stroke-width="7.5" stroke-linecap="round"/><line x1="1155.2" y1="684.0" x2="1167.4" y2="721.6" stroke="url(#rim-fiat-doblo-0)" stroke-width="7.5" stroke-linecap="round"/><line x1="1144.8" y1="684.0" x2="1132.6" y2="721.6" stroke="url(#rim-fiat-doblo-0)" stroke-width="7.5" stroke-linecap="round"/><line x1="1136.4" y1="677.9" x2="1104.4" y2="701.2" stroke="url(#rim-fiat-doblo-0)" stroke-width="7.5" stroke-linecap="round"/><line x1="1133.2" y1="668.0" x2="1093.6" y2="668.0" stroke="url(#rim-fiat-doblo-0)" stroke-width="7.5" stroke-linecap="round"/><line x1="1136.4" y1="658.1" x2="1104.4" y2="634.8" stroke="url(#rim-fiat-doblo-0)" stroke-width="7.5" stroke-linecap="round"/><line x1="1144.8" y1="652.0" x2="1132.6" y2="614.4" stroke="url(#rim-fiat-doblo-0)" stroke-width="7.5" stroke-linecap="round"/><line x1="1155.2" y1="652.0" x2="1167.4" y2="614.4" stroke="url(#rim-fiat-doblo-0)" stroke-width="7.5" stroke-linecap="round"/><line x1="1163.6" y1="658.1" x2="1195.6" y2="634.8" stroke="url(#rim-fiat-doblo-0)" stroke-width="7.5" stroke-linecap="round"/>
    <circle cx="1150" cy="668" r="15.6" fill="#2b3947"/>
    <circle cx="1150" cy="668" r="15.6" fill="none" stroke="#4a5b6c" stroke-width="2"/>
  </g>
  <g>
    <circle cx="480" cy="668" r="100" fill="#0a0f16"/>
    <circle cx="480" cy="668" r="100" fill="none" stroke="#1b2531" stroke-width="9.0"/>
    <circle cx="480" cy="668" r="78.0" fill="#111922"/>
    <circle cx="480" cy="668" r="60.0" fill="url(#hub-fiat-doblo-1)"/>
    <line x1="496.8" y1="668.0" x2="536.4" y2="668.0" stroke="url(#rim-fiat-doblo-1)" stroke-width="7.5" stroke-linecap="round"/><line x1="493.6" y1="677.9" x2="525.6" y2="701.2" stroke="url(#rim-fiat-doblo-1)" stroke-width="7.5" stroke-linecap="round"/><line x1="485.2" y1="684.0" x2="497.4" y2="721.6" stroke="url(#rim-fiat-doblo-1)" stroke-width="7.5" stroke-linecap="round"/><line x1="474.8" y1="684.0" x2="462.6" y2="721.6" stroke="url(#rim-fiat-doblo-1)" stroke-width="7.5" stroke-linecap="round"/><line x1="466.4" y1="677.9" x2="434.4" y2="701.2" stroke="url(#rim-fiat-doblo-1)" stroke-width="7.5" stroke-linecap="round"/><line x1="463.2" y1="668.0" x2="423.6" y2="668.0" stroke="url(#rim-fiat-doblo-1)" stroke-width="7.5" stroke-linecap="round"/><line x1="466.4" y1="658.1" x2="434.4" y2="634.8" stroke="url(#rim-fiat-doblo-1)" stroke-width="7.5" stroke-linecap="round"/><line x1="474.8" y1="652.0" x2="462.6" y2="614.4" stroke="url(#rim-fiat-doblo-1)" stroke-width="7.5" stroke-linecap="round"/><line x1="485.2" y1="652.0" x2="497.4" y2="614.4" stroke="url(#rim-fiat-doblo-1)" stroke-width="7.5" stroke-linecap="round"/><line x1="493.6" y1="658.1" x2="525.6" y2="634.8" stroke="url(#rim-fiat-doblo-1)" stroke-width="7.5" stroke-linecap="round"/>
    <circle cx="480" cy="668" r="15.6" fill="#2b3947"/>
    <circle cx="480" cy="668" r="15.6" fill="none" stroke="#4a5b6c" stroke-width="2"/>
  </g>
  <path d="M 254 660
      C 244 580 250 500 262 442
      C 270 400 300 378 356 372
      L 940 356
      C 1004 352 1054 372 1090 412
      L 1180 512
      C 1288 534 1350 566 1374 606
      C 1386 626 1386 644 1380 660
      L 1252 660
      A 104 104 0 0 0 1044 660
      L 584 660
      A 104 104 0 0 0 376 660
      Z" fill="url(#body-fiat-doblo)"/>
  <path d="M 254 660
      C 244 580 250 500 262 442
      C 270 400 300 378 356 372
      L 940 356
      C 1004 352 1054 372 1090 412
      L 1180 512
      C 1288 534 1350 566 1374 606
      C 1386 626 1386 644 1380 660
      L 1252 660
      A 104 104 0 0 0 1044 660
      L 584 660
      A 104 104 0 0 0 376 660
      Z" fill="none" stroke="#ffffff" stroke-opacity=".3" stroke-width="3.5"/>
  <path d="M 300 430 C 306 400 330 386 372 382 L 640 372 L 640 470 L 300 476 Z
            M 700 370 L 930 362 C 986 359 1024 378 1052 414 L 1112 492 L 700 476 Z" fill="url(#glass-fiat-doblo)"/>
  <path d="M 300 430 C 306 400 330 386 372 382 L 640 372 L 640 470 L 300 476 Z
            M 700 370 L 930 362 C 986 359 1024 378 1052 414 L 1112 492 L 700 476 Z" fill="none" stroke="#0b1118" stroke-opacity=".35" stroke-width="3"/>
  
      <path d="M 668 368 L 668 656" stroke="#0b1118" stroke-opacity=".45" stroke-width="4"/>
      <path d="M 262 524 C 520 546 960 556 1370 552" stroke="#ffffff" stroke-opacity=".18" stroke-width="5" fill="none"/>
      <rect x="300" y="588" width="980" height="24" rx="12" fill="#0b1118" fill-opacity=".35"/>
      <path d="M 604 560 L 662 560" stroke="#0b1118" stroke-opacity=".45" stroke-width="9" stroke-linecap="round"/>
  <ellipse cx="1366" cy="600" rx="34" ry="16" fill="#fff3d8" opacity=".95"/>
  <ellipse cx="1366" cy="600" rx="72" ry="34" fill="#ffe6b0" opacity=".18"/>
  <ellipse cx="268" cy="500" rx="20" ry="13" fill="#ff4d3d" opacity=".92"/>

  <text x="1514" y="944" text-anchor="end" font-family="Segoe UI, Arial, sans-serif" font-size="22" letter-spacing="5" font-weight="700" fill="#ffffff" fill-opacity=".28">MILLWAL</text>
</svg>