<svg xmlns="http://www.w3.org/2000/svg" viewBox="0 0 1600 1000" width="1600" height="1000" role="img" aria-label="VW PASSAT">
  <defs>
    <linearGradient id="bg-volkswagen-passat" x1="0" y1="0" x2="0.4" y2="1">
      <stop offset="0%" stop-color="#101b27"/><stop offset="48%" stop-color="#0a121c"/><stop offset="100%" stop-color="#060b12"/>
    </linearGradient>
    <radialGradient id="glow-volkswagen-passat" cx="50%" cy="46%" r="58%">
      <stop offset="0%" stop-color="#4d76a1" stop-opacity=".95"/>
      <stop offset="42%" stop-color="#25405c" stop-opacity=".55"/>
      <stop offset="100%" stop-color="#080e16" stop-opacity="0"/>
    </radialGradient>
    <linearGradient id="body-volkswagen-passat" x1="0.1" y1="0" x2="0.7" y2="1">
      <stop offset="0%" stop-color="#2a374a"/>
      <stop offset="52%" stop-color="#2a374a"/>
      <stop offset="100%" stop-color="#121a25"/>
    </linearGradient>
    <linearGradient id="glass-volkswagen-passat" x1="0" y1="0" x2="0.6" y2="1">
      <stop offset="0%" stop-color="#cfe2f2" stop-opacity=".92"/>
      <stop offset="45%" stop-color="#7f9cb8" stop-opacity=".82"/>
      <stop offset="100%" stop-color="#22323f" stop-opacity=".92"/>
    </linearGradient>
    <radialGradient id="shadow-volkswagen-passat" cx="50%" cy="50%" r="50%">
      <stop offset="0%" stop-color="#000000" stop-opacity=".62"/>
      <stop offset="100%" stop-color="#000000" stop-opacity="0"/>
    </radialGradient>
    <linearGradient id="water-volkswagen-passat" x1="0" y1="0" x2="0" y2="1">
      <stop offset="0%" stop-color="#12354f"/><stop offset="100%" stop-color="#071723"/>
    </linearGradient>
    <linearGradient id="tagline-volkswagen-passat" x1="0" y1="0" x2="1" y2="0">
      <stop offset="0%" stop-color="#ff7a3d"/><stop offset="100%" stop-color="#ff7a3d" stop-opacity="0"/>
    </linearGradient>
    
    <radialGradient id="hub-volkswagen-passat-0" cx="38%" cy="32%" r="80%">
      <stop offset="0%" stop-color="#6b7c8d"/><stop offset="55%" stop-color="#38475a"/><stop offset="100%" stop-color="#1a2430"/>
    </radialGradient>
    <linearGradient id="rim-volkswagen-passat-0" x1="0" y1="0" x2="1" y2="1">
      <stop offset="0%" stop-color="#93a4b6"/><stop offset="100%" stop-color="#3c4c5f"/>
    </linearGradient>
    <radialGradient id="hub-volkswagen-passat-1" cx="38%" cy="32%" r="80%">
      <stop offset="0%" stop-color="#6b7c8d"/><stop offset="55%" stop-color="#38475a"/><stop offset="100%" stop-color="#1a2430"/>
    </radialGradient>
    <linearGradient id="rim-volkswagen-passat-1" x1="0" y1="0" x2="1" y2="1">
      <stop offset="0%" stop-color="#93a4b6"/><stop offset="100%" stop-color="#3c4c5f"/>
    </linearGradient>
  </defs>

  <rect width="1600" height="1000" fill="url(#bg-volkswagen-passat)"/>
  <ellipse cx="800" cy="460" rx="820" ry="470" fill="url(#glow-volkswagen-passat)"/>

  <g opacity=".16" stroke="#7fa8cf" stroke-width="1.4">
    <line x1="100" y1="0" x2="100" y2="1000"/><line x1="275" y1="0" x2="275" y2="1000"/><line x1="450" y1="0" x2="450" y2="1000"/><line x1="625" y1="0" x2="625" y2="1000"/><line x1="800" y1="0" x2="800" y2="1000"/><line x1="975" y1="0" x2="975" y2="1000"/><line x1="1150" y1="0" x2="1150" y2="1000"/><line x1="1325" y1="0" x2="1325" y2="1000"/><line x1="1500" y1="0" x2="1500" y2="1000"/>
    <line x1="0" y1="120" x2="1600" y2="120"/><line x1="0" y1="280" x2="1600" y2="280"/><line x1="0" y1="440" x2="1600" y2="440"/><line x1="0" y1="600" x2="1600" y2="600"/><line x1="0" y1="760" x2="1600" y2="760"/><line x1="0" y1="920" x2="1600" y2="920"/>
  </g>

  <circle cx="800" cy="470" r="330" fill="none" stroke="#ffffff" stroke-opacity=".07" stroke-width="2"/>
  <circle cx="800" cy="470" r="430" fill="none" stroke="#ffffff" stroke-opacity=".05" stroke-width="2"/>

  <ellipse cx="800" cy="794" rx="560" ry="34" fill="url(#shadow-volkswagen-passat)"/>
  
  <g>
    <circle cx="1130" cy="670" r="98" fill="#0a0f16"/>
    <circle cx="1130" cy="670" r="98" fill="none" stroke="#1b2531" stroke-width="8.8"/>
    <circle cx="1130" cy="670" r="76.4" fill="#111922"/>
    <circle cx="1130" cy="670" r="58.8" fill="url(#hub-volkswagen-passat-0)"/>
    <line x1="1146.5" y1="670.0" x2="1185.3" y2="670.0" stroke="url(#rim-volkswagen-passat-0)" stroke-width="7.3" stroke-linecap="round"/><line x1="1143.3" y1="679.7" x2="1174.7" y2="702.5" stroke="url(#rim-volkswagen-passat-0)" stroke-width="7.3" stroke-linecap="round"/><line x1="1135.1" y1="685.7" x2="1147.1" y2="722.6" stroke="url(#rim-volkswagen-passat-0)" stroke-width="7.3" stroke-linecap="round"/><line x1="1124.9" y1="685.7" x2="1112.9" y2="722.6" stroke="url(#rim-volkswagen-passat-0)" stroke-width="7.3" stroke-linecap="round"/><line x1="1116.7" y1="679.7" x2="1085.3" y2="702.5" stroke="url(#rim-volkswagen-passat-0)" stroke-width="7.3" stroke-linecap="round"/><line x1="1113.5" y1="670.0" x2="1074.7" y2="670.0" stroke="url(#rim-volkswagen-passat-0)" stroke-width="7.3" stroke-linecap="round"/><line x1="1116.7" y1="660.3" x2="1085.3" y2="637.5" stroke="url(#rim-volkswagen-passat-0)" stroke-width="7.3" stroke-linecap="round"/><line x1="1124.9" y1="654.3" x2="1112.9" y2="617.4" stroke="url(#rim-volkswagen-passat-0)" stroke-width="7.3" stroke-linecap="round"/><line x1="1135.1" y1="654.3" x2="1147.1" y2="617.4" stroke="url(#rim-volkswagen-passat-0)" stroke-width="7.3" stroke-linecap="round"/><line x1="1143.3" y1="660.3" x2="1174.7" y2="637.5" stroke="url(#rim-volkswagen-passat-0)" stroke-width="7.3" stroke-linecap="round"/>
    <circle cx="1130" cy="670" r="15.3" fill="#2b3947"/>
    <circle cx="1130" cy="670" r="15.3" fill="none" stroke="#4a5b6c" stroke-width="2"/>
  </g>
  <g>
    <circle cx="520" cy="670" r="98" fill="#0a0f16"/>
    <circle cx="520" cy="670" r="98" fill="none" stroke="#1b2531" stroke-width="8.8"/>
    <circle cx="520" cy="670" r="76.4" fill="#111922"/>
    <circle cx="520" cy="670" r="58.8" fill="url(#hub-volkswagen-passat-1)"/>
    <line x1="536.5" y1="670.0" x2="575.3" y2="670.0" stroke="url(#rim-volkswagen-passat-1)" stroke-width="7.3" stroke-linecap="round"/><line x1="533.3" y1="679.7" x2="564.7" y2="702.5" stroke="url(#rim-volkswagen-passat-1)" stroke-width="7.3" stroke-linecap="round"/><line x1="525.1" y1="685.7" x2="537.1" y2="722.6" stroke="url(#rim-volkswagen-passat-1)" stroke-width="7.3" stroke-linecap="round"/><line x1="514.9" y1="685.7" x2="502.9" y2="722.6" stroke="url(#rim-volkswagen-passat-1)" stroke-width="7.3" stroke-linecap="round"/><line x1="506.7" y1="679.7" x2="475.3" y2="702.5" stroke="url(#rim-volkswagen-passat-1)" stroke-width="7.3" stroke-linecap="round"/><line x1="503.5" y1="670.0" x2="464.7" y2="670.0" stroke="url(#rim-volkswagen-passat-1)" stroke-width="7.3" stroke-linecap="round"/><line x1="506.7" y1="660.3" x2="475.3" y2="637.5" stroke="url(#rim-volkswagen-passat-1)" stroke-width="7.3" stroke-linecap="round"/><line x1="514.9" y1="654.3" x2="502.9" y2="617.4" stroke="url(#rim-volkswagen-passat-1)" stroke-width="7.3" stroke-linecap="round"/><line x1="525.1" y1="654.3" x2="537.1" y2="617.4" stroke="url(#rim-volkswagen-passat-1)" stroke-width="7.3" stroke-linecap="round"/><line x1="533.3" y1="660.3" x2="564.7" y2="637.5" stroke="url(#rim-volkswagen-passat-1)" stroke-width="7.3" stroke-linecap="round"/>
    <circle cx="520" cy="670" r="15.3" fill="#2b3947"/>
    <circle cx="520" cy="670" r="15.3" fill="none" stroke="#4a5b6c" stroke-width="2"/>
  </g>
  <path d="M 272 662
      C 262 596 276 556 318 542
      L 374 524
      C 394 466 438 432 512 420
      L 694 404
      C 764 396 892 396 964 406
      L 1110 446
      C 1198 464 1274 498 1324 540
      C 1354 564 1362 610 1354 662
      L 1232 662
      A 102 102 0 0 0 1028 662
      L 622 662
      A 102 102 0 0 0 418 662
      Z" fill="url(#body-volkswagen-passat)"/>
  <path d="M 272 662
      C 262 596 276 556 318 542
      L 374 524
      C 394 466 438 432 512 420
      L 694 404
      C 764 396 892 396 964 406
      L 1110 446
      C 1198 464 1274 498 1324 540
      C 1354 564 1362 610 1354 662
      L 1232 662
      A 102 102 0 0 0 1028 662
      L 622 662
      A 102 102 0 0 0 418 662
      Z" fill="none" stroke="#ffffff" stroke-opacity=".3" stroke-width="3.5"/>
  <path d="M 430 518 C 450 474 488 448 540 438 L 700 424 C 766 418 878 418 940 426 L 1068 460 Z" fill="url(#glass-volkswagen-passat)"/>
  <path d="M 430 518 C 450 474 488 448 540 438 L 700 424 C 766 418 878 418 940 426 L 1068 460 Z" fill="none" stroke="#0b1118" stroke-opacity=".35" stroke-width="3"/>
  
      <path d="M 700 424 L 700 660" stroke="#0b1118" stroke-opacity=".45" stroke-width="4"/>
      <path d="M 430 545 C 560 565 900 574 1320 568" stroke="#ffffff" stroke-opacity=".2" stroke-width="5" fill="none"/>
      <path d="M 900 604 L 962 604" stroke="#0b1118" stroke-opacity=".45" stroke-width="9" stroke-linecap="round"/>
      <path d="M 640 604 L 702 604" stroke="#0b1118" stroke-opacity=".45" stroke-width="9" stroke-linecap="round"/>
      <path d="M 1140 470 L 1290 522" stroke="#ffffff" stroke-opacity=".22" stroke-width="4" fill="none"/>
  <ellipse cx="1330" cy="566" rx="34" ry="16" fill="#fff3d8" opacity=".95"/>
  <ellipse cx="1330" cy="566" rx="72" ry="34" fill="#ffe6b0" opacity=".18"/>
  <ellipse cx="288" cy="566" rx="20" ry="13" fill="#ff4d3d" opacity=".92"/>

  <text x="1514" y="944" text-anchor="end" font-family="Segoe UI, Arial, sans-serif" font-size="22" letter-spacing="5" font-weight="700" fill="#ffffff" fill-opacity=".28">MILLWAL</text>
</svg>